 <svg viewBox="0 0 398 150" fill="none" xmlns="http://www.w3.org/2000/svg">
            <g filter="url(#filter0_d_48_138)">
                <path d="M73.6875 116.879L130 19.9531L186.312 116.879H73.6875Z" stroke="#6E18C4" stroke-width="10"
                    shape-rendering="crispEdges" />
            </g>
            <g clip-path="url(#clip0_48_138)">
                <rect width="267" height="49" transform="translate(118 50)" fill="black" />
                <g filter="url(#filter1_d_48_138)">
                    <path
                        d="M133.656 61.3398L144.047 79.3867V88H138.715L125.453 65.1484C125.167 64.6536 124.932 64.3086 124.75 64.1133C124.568 63.918 124.333 63.7747 124.047 63.6836L123.305 63.4102C123.109 63.3451 122.953 63.2279 122.836 63.0586C122.719 62.8893 122.66 62.7005 122.66 62.4922C122.66 62.2708 122.719 62.069 122.836 61.8867C122.953 61.6914 123.109 61.5547 123.305 61.4766C123.526 61.3854 124.125 61.3398 125.102 61.3398H133.656ZM125.473 68.1953L127.543 71.6328V82.1016C127.543 83.013 127.693 83.7617 127.992 84.3477C128.305 84.9336 128.793 85.4154 129.457 85.793L130.043 86.125C130.382 86.3203 130.551 86.6133 130.551 87.0039C130.551 87.3034 130.427 87.5508 130.18 87.7461C129.971 87.9154 129.542 88 128.891 88H124.379C123.194 88 122.602 87.6615 122.602 86.9844C122.602 86.75 122.66 86.5677 122.777 86.4375C122.908 86.2943 123.181 86.1055 123.598 85.8711C124.848 85.181 125.473 83.9245 125.473 82.1016V68.1953ZM144.047 76.2617L141.977 72.7656V67.3555C141.977 66.2617 141.814 65.4284 141.488 64.8555C141.176 64.2695 140.616 63.7682 139.809 63.3516C139.535 63.2214 139.346 63.0846 139.242 62.9414C139.138 62.7852 139.086 62.5898 139.086 62.3555C139.086 62.0039 139.197 61.75 139.418 61.5938C139.652 61.4245 140.023 61.3398 140.531 61.3398H145.414C146.078 61.3398 146.514 61.444 146.723 61.6523C146.944 61.8607 147.055 62.1081 147.055 62.3945C147.055 62.668 146.99 62.8763 146.859 63.0195C146.742 63.1497 146.449 63.332 145.98 63.5664C145.29 63.918 144.77 64.4583 144.418 65.1875C144.171 65.7214 144.047 66.444 144.047 67.3555V76.2617ZM160.16 88H151.449H150.941C150.473 88 150.108 87.9154 149.848 87.7461C149.6 87.5638 149.477 87.3099 149.477 86.9844C149.477 86.4505 149.737 86.099 150.258 85.9297C150.688 85.7865 150.935 85.7018 151 85.6758C151.078 85.6367 151.156 85.5586 151.234 85.4414C151.391 85.2331 151.469 84.901 151.469 84.4453V64.8945C151.469 64.4388 151.391 64.1068 151.234 63.8984C151.156 63.7812 151.078 63.7096 151 63.6836C150.935 63.6445 150.688 63.5534 150.258 63.4102C149.737 63.2409 149.477 62.8893 149.477 62.3555C149.477 62.0299 149.6 61.7826 149.848 61.6133C150.108 61.431 150.473 61.3398 150.941 61.3398H151.449H160.16H160.668C161.137 61.3398 161.495 61.431 161.742 61.6133C162.003 61.7826 162.133 62.0299 162.133 62.3555C162.133 62.8893 161.872 63.2409 161.352 63.4102C160.922 63.5534 160.668 63.6445 160.59 63.6836C160.525 63.7096 160.453 63.7812 160.375 63.8984C160.219 64.1068 160.141 64.4388 160.141 64.8945V84.4453C160.141 84.901 160.219 85.2331 160.375 85.4414C160.453 85.5586 160.525 85.6367 160.59 85.6758C160.668 85.7018 160.922 85.7865 161.352 85.9297C161.872 86.099 162.133 86.4505 162.133 86.9844C162.133 87.3099 162.003 87.5638 161.742 87.7461C161.495 87.9154 161.137 88 160.668 88H160.16ZM176.078 60.8125V63.1758C175.31 63.293 174.737 63.6315 174.359 64.1914C173.982 64.7513 173.793 65.5521 173.793 66.5938V82.7266V83.5664C173.793 83.8659 173.852 84.1849 173.969 84.5234C174.099 84.849 174.262 85.1289 174.457 85.3633C174.665 85.6237 174.887 85.8125 175.121 85.9297C175.355 86.0339 175.674 86.1055 176.078 86.1445V88.5273C173.552 88.5273 171.358 87.8698 169.496 86.5547C167.855 85.3958 166.618 83.8398 165.785 81.8867C164.952 79.9206 164.535 77.5964 164.535 74.9141C164.535 72.9479 164.802 71.1185 165.336 69.4258C165.883 67.7201 166.671 66.2422 167.699 64.9922C168.741 63.7292 169.984 62.7135 171.43 61.9453C172.888 61.1771 174.288 60.793 175.629 60.793L176.078 60.8125ZM177.621 63.1953V60.832C178.259 60.9362 178.773 61.0469 179.164 61.1641C179.568 61.2812 180.29 61.5286 181.332 61.9062C181.996 62.1406 182.439 62.2578 182.66 62.2578C183.038 62.2578 183.324 62.0885 183.52 61.75L183.773 61.2812C183.93 60.9688 184.223 60.8125 184.652 60.8125C185.004 60.8125 185.271 60.9167 185.453 61.125C185.648 61.3333 185.746 61.6393 185.746 62.043V70.168C185.746 70.6888 185.629 71.0664 185.395 71.3008C185.16 71.5352 184.893 71.6523 184.594 71.6523C184.281 71.6523 184.027 71.5547 183.832 71.3594C183.65 71.151 183.5 70.819 183.383 70.3633C183.109 69.3346 182.842 68.5273 182.582 67.9414C182.022 66.7044 181.384 65.7018 180.668 64.9336C180.186 64.4128 179.704 64.0156 179.223 63.7422C178.741 63.4557 178.207 63.2734 177.621 63.1953ZM177.68 88.5273V86.1445C178.695 86.0664 179.763 85.6823 180.883 84.9922C181.482 84.6146 182.016 84.1133 182.484 83.4883C182.953 82.8503 183.305 82.1536 183.539 81.3984C183.669 80.9818 183.819 80.6888 183.988 80.5195C184.171 80.3372 184.405 80.2461 184.691 80.2461C185.004 80.2461 185.264 80.3633 185.473 80.5977C185.681 80.832 185.785 81.125 185.785 81.4766C185.785 82.0625 185.557 82.7721 185.102 83.6055C184.659 84.4388 184.086 85.207 183.383 85.9102C182.523 86.7695 181.638 87.4076 180.727 87.8242C179.828 88.2409 178.812 88.4753 177.68 88.5273ZM199.008 62.9219C198.344 63.1562 197.875 63.4753 197.602 63.8789C197.328 64.2826 197.191 64.875 197.191 65.6562V83.1172C197.191 84.263 197.348 85.0703 197.66 85.5391C197.908 85.9297 198.357 86.2096 199.008 86.3789V88.5273C196.117 88.293 193.695 87.2057 191.742 85.2656C189.203 82.7396 187.934 79.2174 187.934 74.6992C187.934 72.4336 188.266 70.3893 188.93 68.5664C189.607 66.7305 190.603 65.1745 191.918 63.8984C192.921 62.9219 194.001 62.1797 195.16 61.6719C196.319 61.1641 197.602 60.8776 199.008 60.8125V62.9219ZM200.609 62.9219V60.8125C202.016 60.8776 203.298 61.1641 204.457 61.6719C205.629 62.1797 206.716 62.9219 207.719 63.8984C210.375 66.4896 211.703 70.0898 211.703 74.6992C211.703 79.2174 210.434 82.7396 207.895 85.2656C205.941 87.2188 203.513 88.306 200.609 88.5273V86.3789C200.948 86.3008 201.208 86.2031 201.391 86.0859C201.586 85.9557 201.762 85.7734 201.918 85.5391C202.27 85.0052 202.445 84.1979 202.445 83.1172V65.6562C202.445 64.9661 202.328 64.4193 202.094 64.0156C201.938 63.7422 201.749 63.5273 201.527 63.3711C201.319 63.2148 201.013 63.0651 200.609 62.9219ZM224.789 88H216.098H215.59C215.121 88 214.757 87.9154 214.496 87.7461C214.249 87.5638 214.125 87.3099 214.125 86.9844C214.125 86.4505 214.385 86.099 214.906 85.9297C215.336 85.7865 215.583 85.7018 215.648 85.6758C215.727 85.6367 215.805 85.5586 215.883 85.4414C216.039 85.2331 216.117 84.901 216.117 84.4453V64.8945C216.117 64.4388 216.039 64.1068 215.883 63.8984C215.805 63.7812 215.727 63.7096 215.648 63.6836C215.583 63.6445 215.336 63.5534 214.906 63.4102C214.385 63.2409 214.125 62.8893 214.125 62.3555C214.125 62.0299 214.249 61.7826 214.496 61.6133C214.757 61.431 215.121 61.3398 215.59 61.3398H216.098H224.809H225.473C226.046 61.3398 226.456 61.418 226.703 61.5742C227.042 61.7826 227.211 62.056 227.211 62.3945C227.211 62.9674 226.898 63.3255 226.273 63.4688C225.766 63.5859 225.466 63.6641 225.375 63.7031C225.284 63.7422 225.186 63.8203 225.082 63.9375C224.887 64.1719 224.789 64.5365 224.789 65.0312V88ZM226.371 88V85.8125C227.009 85.6953 227.51 85.5651 227.875 85.4219C228.253 85.2786 228.611 85.0703 228.949 84.7969C229.496 84.3672 229.997 83.7747 230.453 83.0195C230.909 82.2643 231.28 81.4245 231.566 80.5C231.775 79.7839 231.964 79.3151 232.133 79.0938C232.315 78.8594 232.576 78.7422 232.914 78.7422C233.279 78.7422 233.546 78.8919 233.715 79.1914C233.793 79.3346 233.832 79.6211 233.832 80.0508V88H226.371ZM243.285 61.3398H251.156L256.586 84.2891C256.69 84.6927 256.807 85.0508 256.938 85.3633C257.055 85.6107 257.315 85.8125 257.719 85.9688C258.057 86.112 258.292 86.2552 258.422 86.3984C258.552 86.5417 258.617 86.737 258.617 86.9844C258.617 87.6615 258.109 88 257.094 88H247.348C246.957 88 246.645 87.9089 246.41 87.7266C246.176 87.5312 246.059 87.2773 246.059 86.9648C246.059 86.7044 246.111 86.5091 246.215 86.3789C246.319 86.2487 246.553 86.0859 246.918 85.8906C247.178 85.7604 247.361 85.6172 247.465 85.4609C247.569 85.3047 247.621 85.1094 247.621 84.875C247.621 84.6536 247.602 84.4583 247.562 84.2891L246.938 81.457H241.488L242.016 79.1328H246.391L242.797 63.2539L243.285 61.3398ZM241.938 66.3008L242.934 70.3438L239.477 82.9609C239.372 83.3255 239.32 83.6641 239.32 83.9766C239.32 84.7969 239.704 85.3828 240.473 85.7344L241.156 86.0469C241.586 86.2422 241.801 86.5677 241.801 87.0234C241.801 87.6745 241.326 88 240.375 88H235.414C234.932 88 234.548 87.9023 234.262 87.707C233.988 87.4987 233.852 87.2188 233.852 86.8672C233.852 86.4896 234.138 86.1771 234.711 85.9297C235.245 85.6953 235.635 85.487 235.883 85.3047C236.143 85.1094 236.391 84.849 236.625 84.5234C236.99 83.9896 237.289 83.2799 237.523 82.3945L241.938 66.3008ZM269.223 60.8125V63.0586C268.415 63.2799 267.797 63.625 267.367 64.0938C266.951 64.5495 266.742 65.1159 266.742 65.793C266.742 66.444 266.918 67.0169 267.27 67.5117C267.621 67.9935 268.194 68.4557 268.988 68.8984C269.535 69.1979 270.772 69.7708 272.699 70.6172C273.871 71.125 274.776 71.5872 275.414 72.0039C276.065 72.4076 276.677 72.9154 277.25 73.5273C278.786 75.1419 279.555 77.0625 279.555 79.2891C279.555 80.9688 279.138 82.5052 278.305 83.8984C277.471 85.2917 276.326 86.3854 274.867 87.1797C274.086 87.5964 273.227 87.9219 272.289 88.1562C271.365 88.4036 270.499 88.5273 269.691 88.5273V86.3008C270.824 86.0273 271.638 85.6497 272.133 85.168C272.641 84.6732 272.895 84.0091 272.895 83.1758C272.895 82.3034 272.504 81.5352 271.723 80.8711C271.202 80.4414 270.212 79.9076 268.754 79.2695C267.152 78.5664 266.052 78.0651 265.453 77.7656C264.867 77.4661 264.301 77.1146 263.754 76.7109C261.306 74.9661 260.082 72.6419 260.082 69.7383C260.082 68.2539 260.388 66.8867 261 65.6367C261.612 64.3737 262.465 63.3581 263.559 62.5898C265.082 61.5221 266.97 60.9297 269.223 60.8125ZM270.766 63.0586V60.9102C271.547 60.9622 272.224 61.0664 272.797 61.2227C273.37 61.3659 274.184 61.6589 275.238 62.1016C275.499 62.2057 275.714 62.2578 275.883 62.2578C276.13 62.2578 276.312 62.1732 276.43 62.0039L276.859 61.4375C277.068 61.151 277.322 61.0078 277.621 61.0078C277.973 61.0078 278.227 61.138 278.383 61.3984C278.552 61.6458 278.637 62.043 278.637 62.5898V69.0352C278.637 69.4128 278.526 69.7253 278.305 69.9727C278.096 70.207 277.823 70.3242 277.484 70.3242C277.224 70.3242 276.983 70.2396 276.762 70.0703C276.645 69.9661 276.547 69.8424 276.469 69.6992C276.404 69.543 276.339 69.2891 276.273 68.9375C276.13 68.2995 275.883 67.6419 275.531 66.9648C275.18 66.2878 274.77 65.6823 274.301 65.1484C273.363 64.0938 272.185 63.3971 270.766 63.0586ZM268.207 86.3008V88.5273C267.139 88.5273 265.961 88.2214 264.672 87.6094C264.19 87.388 263.858 87.2448 263.676 87.1797C263.493 87.1146 263.318 87.082 263.148 87.082C262.888 87.082 262.693 87.1276 262.562 87.2188C262.432 87.2969 262.224 87.5052 261.938 87.8438C261.703 88.1302 261.449 88.2734 261.176 88.2734C260.447 88.2734 260.082 87.7135 260.082 86.5938V79.4844C260.082 79.1198 260.186 78.8138 260.395 78.5664C260.603 78.306 260.863 78.1693 261.176 78.1562C261.462 78.1432 261.684 78.2279 261.84 78.4102C262.009 78.5794 262.152 78.8854 262.27 79.3281C262.569 80.4479 262.999 81.4961 263.559 82.4727C264.132 83.4492 264.796 84.276 265.551 84.9531C266.319 85.6562 267.204 86.1055 268.207 86.3008ZM303.305 88H294.613H294.105C293.637 88 293.272 87.9154 293.012 87.7461C292.764 87.5638 292.641 87.3099 292.641 86.9844C292.641 86.4505 292.901 86.099 293.422 85.9297C293.852 85.7865 294.099 85.7018 294.164 85.6758C294.242 85.6367 294.32 85.5586 294.398 85.4414C294.555 85.2331 294.633 84.901 294.633 84.4453V64.8945C294.633 64.4388 294.555 64.1068 294.398 63.8984C294.32 63.7812 294.242 63.7096 294.164 63.6836C294.099 63.6445 293.852 63.5534 293.422 63.4102C292.901 63.2409 292.641 62.8893 292.641 62.3555C292.641 62.0299 292.764 61.7826 293.012 61.6133C293.272 61.431 293.637 61.3398 294.105 61.3398H294.613H303.324H303.988C304.561 61.3398 304.971 61.418 305.219 61.5742C305.557 61.7826 305.727 62.056 305.727 62.3945C305.727 62.9674 305.414 63.3255 304.789 63.4688C304.281 63.5859 303.982 63.6641 303.891 63.7031C303.799 63.7422 303.702 63.8203 303.598 63.9375C303.402 64.1719 303.305 64.5365 303.305 65.0312V88ZM304.887 88V85.8125C305.525 85.6953 306.026 85.5651 306.391 85.4219C306.768 85.2786 307.126 85.0703 307.465 84.7969C308.012 84.3672 308.513 83.7747 308.969 83.0195C309.424 82.2643 309.796 81.4245 310.082 80.5C310.29 79.7839 310.479 79.3151 310.648 79.0938C310.831 78.8594 311.091 78.7422 311.43 78.7422C311.794 78.7422 312.061 78.8919 312.23 79.1914C312.309 79.3346 312.348 79.6211 312.348 80.0508V88H304.887ZM324.652 88H315.941H315.434C314.965 88 314.6 87.9154 314.34 87.7461C314.092 87.5638 313.969 87.3099 313.969 86.9844C313.969 86.4505 314.229 86.099 314.75 85.9297C315.18 85.7865 315.427 85.7018 315.492 85.6758C315.57 85.6367 315.648 85.5586 315.727 85.4414C315.883 85.2331 315.961 84.901 315.961 84.4453V64.8945C315.961 64.4388 315.883 64.1068 315.727 63.8984C315.648 63.7812 315.57 63.7096 315.492 63.6836C315.427 63.6445 315.18 63.5534 314.75 63.4102C314.229 63.2409 313.969 62.8893 313.969 62.3555C313.969 62.0299 314.092 61.7826 314.34 61.6133C314.6 61.431 314.965 61.3398 315.434 61.3398H315.941H324.652H325.16C325.629 61.3398 325.987 61.431 326.234 61.6133C326.495 61.7826 326.625 62.0299 326.625 62.3555C326.625 62.8893 326.365 63.2409 325.844 63.4102C325.414 63.5534 325.16 63.6445 325.082 63.6836C325.017 63.7096 324.945 63.7812 324.867 63.8984C324.711 64.1068 324.633 64.4388 324.633 64.8945V84.4453C324.633 84.901 324.711 85.2331 324.867 85.4414C324.945 85.5586 325.017 85.6367 325.082 85.6758C325.16 85.7018 325.414 85.7865 325.844 85.9297C326.365 86.099 326.625 86.4505 326.625 86.9844C326.625 87.3099 326.495 87.5638 326.234 87.7461C325.987 87.9154 325.629 88 325.16 88H324.652ZM340.492 61.3398V84.2891C340.492 84.7969 340.59 85.1615 340.785 85.3828C340.889 85.513 340.987 85.5977 341.078 85.6367C341.169 85.6628 341.469 85.7409 341.977 85.8711C342.602 86.0143 342.914 86.3724 342.914 86.9453C342.914 87.2839 342.745 87.5573 342.406 87.7656C342.159 87.9219 341.749 88 341.176 88H340.512H331.801H331.293C330.824 88 330.46 87.9154 330.199 87.7461C329.952 87.5638 329.828 87.3099 329.828 86.9844C329.828 86.4505 330.089 86.099 330.609 85.9297C331.039 85.7865 331.286 85.7018 331.352 85.6758C331.43 85.6367 331.508 85.5586 331.586 85.4414C331.742 85.2331 331.82 84.901 331.82 84.4453V64.8945C331.82 64.4388 331.742 64.1068 331.586 63.8984C331.508 63.7812 331.43 63.7096 331.352 63.6836C331.286 63.6445 331.039 63.5534 330.609 63.4102C330.089 63.2409 329.828 62.8893 329.828 62.3555C329.828 62.0299 329.952 61.7826 330.199 61.6133C330.46 61.431 330.824 61.3398 331.293 61.3398H331.801H340.492ZM346.488 74.9336C347.686 75.1159 348.604 75.3177 349.242 75.5391C349.893 75.7604 350.479 76.0599 351 76.4375C351.547 76.8411 351.964 77.3229 352.25 77.8828C352.549 78.4427 352.699 79.0352 352.699 79.6602V83.7031C352.699 84.1198 352.836 84.3281 353.109 84.3281C353.214 84.3281 353.298 84.3021 353.363 84.25C353.441 84.1849 353.546 84.0677 353.676 83.8984C354.001 83.4557 354.333 83.2344 354.672 83.2344C354.893 83.2344 355.115 83.3516 355.336 83.5859C355.557 83.8203 355.668 84.0547 355.668 84.2891C355.668 84.6927 355.473 85.1875 355.082 85.7734C354.704 86.3464 354.229 86.8607 353.656 87.3164C353.122 87.7461 352.543 88.0521 351.918 88.2344C351.293 88.4297 350.557 88.5273 349.711 88.5273C347.992 88.5273 346.651 88.0391 345.688 87.0625C344.724 86.0729 344.242 84.6992 344.242 82.9414V79.6602C344.242 78.931 344.236 78.5078 344.223 78.3906C344.158 77.8698 343.975 77.4206 343.676 77.043C343.298 76.5872 342.758 76.3203 342.055 76.2422V74.1523C342.758 74.0482 343.259 73.8659 343.559 73.6055C343.819 73.3711 343.995 73.1042 344.086 72.8047C344.19 72.5052 344.242 72.0625 344.242 71.4766V66.3008C344.242 65.4805 344.079 64.8685 343.754 64.4648C343.441 64.0612 342.868 63.7422 342.035 63.5078V61.3398H342.543C343.988 61.3398 345.219 61.3919 346.234 61.4961C347.745 61.6393 349.092 62.1341 350.277 62.9805C351.983 64.1914 352.836 65.9167 352.836 68.1562C352.836 69.9922 352.263 71.4961 351.117 72.668C350.635 73.1628 350.069 73.5664 349.418 73.8789C348.78 74.1914 347.803 74.543 346.488 74.9336ZM365.629 61.3398H373.5L378.93 84.2891C379.034 84.6927 379.151 85.0508 379.281 85.3633C379.398 85.6107 379.659 85.8125 380.062 85.9688C380.401 86.112 380.635 86.2552 380.766 86.3984C380.896 86.5417 380.961 86.737 380.961 86.9844C380.961 87.6615 380.453 88 379.438 88H369.691C369.301 88 368.988 87.9089 368.754 87.7266C368.52 87.5312 368.402 87.2773 368.402 86.9648C368.402 86.7044 368.454 86.5091 368.559 86.3789C368.663 86.2487 368.897 86.0859 369.262 85.8906C369.522 85.7604 369.704 85.6172 369.809 85.4609C369.913 85.3047 369.965 85.1094 369.965 84.875C369.965 84.6536 369.945 84.4583 369.906 84.2891L369.281 81.457H363.832L364.359 79.1328H368.734L365.141 63.2539L365.629 61.3398ZM364.281 66.3008L365.277 70.3438L361.82 82.9609C361.716 83.3255 361.664 83.6641 361.664 83.9766C361.664 84.7969 362.048 85.3828 362.816 85.7344L363.5 86.0469C363.93 86.2422 364.145 86.5677 364.145 87.0234C364.145 87.6745 363.669 88 362.719 88H357.758C357.276 88 356.892 87.9023 356.605 87.707C356.332 87.4987 356.195 87.2188 356.195 86.8672C356.195 86.4896 356.482 86.1771 357.055 85.9297C357.589 85.6953 357.979 85.487 358.227 85.3047C358.487 85.1094 358.734 84.849 358.969 84.5234C359.333 83.9896 359.633 83.2799 359.867 82.3945L364.281 66.3008Z"
                        fill="white" />
                </g>
            </g>
            <defs>
                <filter id="filter0_d_48_138" x="60" y="5" width="150" height="131.879" filterUnits="userSpaceOnUse"
                    color-interpolation-filters="sRGB">
                    <feFlood flood-opacity="0" result="BackgroundImageFix" />
                    <feColorMatrix in="SourceAlpha" type="matrix" values="0 0 0 0 0 0 0 0 0 0 0 0 0 0 0 0 0 0 127 0"
                        result="hardAlpha" />
                    <feOffset dx="5" dy="5" />
                    <feGaussianBlur stdDeviation="5" />
                    <feComposite in2="hardAlpha" operator="out" />
                    <feColorMatrix type="matrix" values="0 0 0 0 0 0 0 0 0 0 0 0 0 0 0 0 0 0 0.25 0" />
                    <feBlend mode="normal" in2="BackgroundImageFix" result="effect1_dropShadow_48_138" />
                    <feBlend mode="normal" in="SourceGraphic" in2="effect1_dropShadow_48_138" result="shape" />
                </filter>
                <filter id="filter1_d_48_138" x="122.602" y="60.793" width="267.359" height="36.7344"
                    filterUnits="userSpaceOnUse" color-interpolation-filters="sRGB">
                    <feFlood flood-opacity="0" result="BackgroundImageFix" />
                    <feColorMatrix in="SourceAlpha" type="matrix" values="0 0 0 0 0 0 0 0 0 0 0 0 0 0 0 0 0 0 127 0"
                        result="hardAlpha" />
                    <feOffset dx="5" dy="5" />
                    <feGaussianBlur stdDeviation="2" />
                    <feComposite in2="hardAlpha" operator="out" />
                    <feColorMatrix type="matrix"
                        values="0 0 0 0 0.0309014 0 0 0 0 0.0250694 0 0 0 0 0.316667 0 0 0 1 0" />
                    <feBlend mode="normal" in2="BackgroundImageFix" result="effect1_dropShadow_48_138" />
                    <feBlend mode="normal" in="SourceGraphic" in2="effect1_dropShadow_48_138" result="shape" />
                </filter>
                <clipPath id="clip0_48_138">
                    <rect width="267" height="49" fill="white" transform="translate(118 50)" />
                </clipPath>
            </defs>
        </svg>